<svg width="32" height="33" viewBox="0 0 32 33" fill="none" xmlns="http://www.w3.org/2000/svg">
<path d="M28.3749 28.5637L16.7565 0.976201C15.9147 0.0343919 15.6146 1.10955 15.6146 1.10955C14.4728 3.76829 3.85453 29.3222 3.85453 29.3222C2.41264 32.731 0.529022 32.3226 0.529022 32.556H8.03849C8.03849 32.1726 3.98788 32.7977 5.37976 29.2555L9.39703 19.4123C9.81376 18.7956 9.83877 18.6039 10.8389 18.6039C12.4975 18.6039 17.5733 18.5955 18.3401 18.5955C19.2652 18.5955 19.3069 18.5955 19.6986 19.504L23.4908 28.8138C24.6077 32.531 21.2238 32.3226 21.2738 32.556H31.9421C32.0338 32.2393 30.3085 33.3144 28.3749 28.5637ZM11.5557 17.087C10.7222 17.087 10.8389 16.5952 11.1556 15.8201C11.1556 15.8201 13.9894 8.75238 14.3228 7.89392C14.7562 6.79375 15.2229 7.01045 15.548 7.95226L18.3901 15.9368C18.6818 16.8286 19.0318 17.0786 18.0734 17.0786H11.5557V17.087Z" fill="#231F20"/>
</svg>
