<svg width="29" height="33" viewBox="0 0 29 33" fill="none" xmlns="http://www.w3.org/2000/svg">
<path d="M17.5833 31.2974C24.776 31.1724 27.9765 26.1883 28.6266 25.955C28.935 25.8383 25.1094 32.4893 17.4916 32.4893C0.355654 32.4893 0.664038 16.9619 0.664038 16.9619C1.18912 6.06029 10.0155 -0.440697 18.4584 0.451104C20.7254 0.692808 21.7089 1.0512 23.3758 1.57627C24.1509 1.83465 26.2512 2.96815 27.093 2.65977C27.6765 2.44307 28.1099 1.20122 28.2599 1.12621L28.3349 9.63583C27.7265 9.63583 25.8512 1.45126 17.6916 1.45126C11.0073 1.45126 5.93984 9.09408 6.05652 16.5702C6.23155 29.0804 14.9579 31.3308 17.5833 31.2974Z" fill="#231F20"/>
</svg>
