<svg width="25" height="33" viewBox="0 0 25 33" fill="none" xmlns="http://www.w3.org/2000/svg">
<path d="M8.25641 16.9036L8.26474 24.7131V28.8221C8.29808 31.1974 8.07305 31.4725 9.62328 31.4891L18.0996 31.4725C24.8756 31.0641 23.6754 26.305 24.2505 26.1883L24.0505 32.556H0.230187C0.130172 32.3226 3.77239 32.9227 3.77239 27.7219V23.6129V5.7769C3.77239 0.56778 0.421895 1.35957 0.463568 0.951172H24.0505L24.2505 7.21879C23.7838 7.17711 25.0256 2.30971 18.0079 1.87631H10.1817C9.01485 2.17636 8.26474 1.37624 8.26474 4.47671L8.25641 11.2277L8.28141 12.7363C8.28141 13.8865 8.30642 13.9948 9.92333 13.9948H17.4911C21.3084 13.9948 20.7916 10.5443 21.1334 10.5443C21.1417 10.5443 21.1334 18.7122 21.1334 18.7122C20.7916 18.7122 21.3001 14.9283 17.6745 15.045H10.015C8.33142 15.0116 8.27308 15.6201 8.27308 16.7702L8.25641 16.9036Z" fill="#231F20"/>
</svg>
