<svg width="41" height="33" viewBox="0 0 41 33" fill="none" xmlns="http://www.w3.org/2000/svg">
<path d="M36.4792 27.4802C37.1043 32.8227 39.8963 32.0226 40.0464 32.4893C40.0464 32.4893 29.2781 32.4726 29.2781 32.456C29.2281 32.2643 32.3702 32.3976 31.7451 27.7052L28.9364 6.84375C28.8113 6.29367 28.8113 5.66024 28.5196 5.81026C28.2946 5.91028 19.0349 28.3387 19.0349 28.3387C18.8932 28.7137 18.6598 28.9471 18.3598 28.4137C18.1431 28.0303 9.68344 9.41914 9.68344 9.41914C9.26672 8.48567 8.52494 7.00211 8.39992 6.74374C8.18322 6.277 7.85818 6.21866 7.88318 7.77723L5.69118 28.9138C5.15777 32.5977 8.64162 32.3226 8.59161 32.5643H0.957139C0.873793 32.3726 3.52419 32.7227 4.10761 28.8471L6.61632 5.50188C6.42463 0.984529 3.24915 1.22623 3.24915 0.851175H11.267L11.3837 1.10121L19.8933 19.6707C20.0183 19.8957 20.0934 20.0041 20.16 20.1458C20.4101 20.6625 20.3851 21.0376 20.6684 20.3291L29.003 0.826172L36.7125 0.851175C36.7625 1.11788 33.6121 0.984528 33.6121 4.86012L36.4792 27.4802Z" fill="#231F20"/>
</svg>
