<svg width="32" height="33" viewBox="0 0 32 33" fill="none" xmlns="http://www.w3.org/2000/svg">
<path d="M5.55994 29.2638C6.00167 33.1644 8.97712 32.1725 8.97712 32.5476L0.659191 32.5559C0.692529 32.1809 3.99303 32.5393 3.94302 29.0221V28.672V5.24346C4.00137 1.1345 0.425821 1.12617 0.325806 0.809454H8.67707L25.9464 22.2294L25.888 4.8434C25.7713 0.651096 22.5625 0.942808 22.5125 0.717773H31.2222C31.1888 0.926138 27.78 1.00948 27.6049 4.8434L27.5716 31.7475C27.5716 31.7475 27.8717 33.7894 26.6298 32.1809C26.088 31.4724 5.86831 5.86022 5.86831 5.86022C5.67662 5.64352 5.59327 5.87689 5.5766 6.51032L5.55994 28.922V29.2638Z" fill="#231F20"/>
</svg>
