<svg width="34" height="33" viewBox="0 0 34 33" fill="none" xmlns="http://www.w3.org/2000/svg">
<path d="M16.9045 0.259399C6.96969 0.259399 0.535385 8.17727 0.535385 16.6035C0.535385 25.0298 6.88635 32.5393 16.8295 32.5393C26.7727 32.5393 33.2904 25.0298 33.2904 16.6035C33.2904 8.17727 26.856 0.259399 16.9045 0.259399ZM16.8379 31.3641H16.7462H16.7378C10.6286 31.3641 6.5863 25.6299 6.5863 16.6786C6.5863 6.427 10.7203 1.45958 16.8295 1.45958C16.8379 1.45958 16.8379 1.46792 16.8379 1.46792C22.9388 1.47625 27.0894 6.43534 27.0894 16.6786C27.0894 25.5799 22.8971 31.2974 16.8379 31.3641Z" fill="#231F20"/>
</svg>
