<svg width="9" height="9" viewBox="0 0 9 9" fill="none" xmlns="http://www.w3.org/2000/svg">
<path d="M7.20382 3.47417C6.97046 2.79907 6.33703 2.20731 4.49508 2.20731C3.46159 2.20731 2.43643 2.46568 2.43643 3.16579C2.43643 3.49918 2.62812 3.84089 4.17836 4.02425L6.00364 4.29929C7.73724 4.566 8.76239 5.22444 8.76239 6.50796C8.76239 8.31657 7.02046 9.00001 4.95348 9.00001C1.63631 9.00001 0.819515 7.36643 0.636154 6.78301L2.08638 6.33294C2.36976 6.89136 2.93651 7.70815 4.98682 7.70815C6.22867 7.70815 7.2455 7.29975 7.2455 6.63298C7.2455 6.14124 6.67041 5.81619 5.56191 5.68284L3.71162 5.42447C1.91968 5.18276 0.92787 4.40765 0.92787 3.24914C0.92787 0.965455 3.92832 0.965454 4.52841 0.965454C7.87059 0.965454 8.429 2.49069 8.62903 3.00743L7.20382 3.47417Z" fill="#231F20"/>
</svg>
